# xmcd CD database file
# Copyright (C) 1993-1996 Ti Kan
#
# Track frame offsets:
#	182
#	24392
#	48702
#	68790
#	85632
#	101997
#	121395
#	142065
#	159817
#
# Disc length: 2392 seconds
#
# Revision: 1
# Processed by: cddbd v1.4b41PL1 Copyright (c) Steve Scherf et al.
# Submitted via: CDValet v3.01 - Copyright (c) 1997 Greg Leichner
#
DISCID=75095609
DTITLE=Baldry, Long John - A Touch Of The Blues
DYEAR=1900
DGENRE=
TTITLE0=Going Down Slow
TTITLE1=Got My Mojo Working
TTITLE2=Spoonful
TTITLE3=Rake and Rambling Boy
TTITLE4=Black Girl
TTITLE5=Good Morning Blues
TTITLE6=Temptation In My Heart
TTITLE7=Beat Street
TTITLE8=Mystery To Me
EXTD=1990
EXTT0=live 1990
EXTT1=live 1990
EXTT2=live 1990
EXTT3=live 1990
EXTT4=live 1990
EXTT5=live 1990
EXTT6=live 1990
EXTT7=live 1990
EXTT8=live 1990
PLAYORDER=
